<?xml version="1.0" standalone="no"?><!DOCTYPE svg PUBLIC "-//W3C//DTD SVG 1.1//EN" "http://www.w3.org/Graphics/SVG/1.1/DTD/svg11.dtd"><svg t="1737706991239" class="icon" viewBox="0 0 1024 1024" version="1.1" xmlns="http://www.w3.org/2000/svg" p-id="1635" xmlns:xlink="http://www.w3.org/1999/xlink" width="200" height="200"><path d="M512 288.384a239.36 239.36 0 0 0-240.768 240.768A239.296 239.296 0 0 0 512 769.984a239.296 239.296 0 0 0 240.768-240.832A239.36 239.36 0 0 0 512 288.384z m0 430.144c-103.168 0-189.184-86.08-189.184-189.312 0-103.168 86.016-189.184 189.184-189.184 103.104 0 189.248 86.016 189.248 189.184 0 103.232-86.144 189.312-189.248 189.312z m298.176-308.672a32.064 32.064 0 0 0 64 0 32 32 0 0 0-64 0z" fill="#bfbfbf" p-id="1636"></path><path d="M890.368 219.648H787.136l-24-72.256c-6.848-17.216-27.52-30.912-44.736-30.912H305.6a49.088 49.088 0 0 0-44.736 30.912L236.8 219.648H133.568c-58.496 0-103.168 44.736-103.168 103.168v481.536c0 58.496 48.128 103.104 103.168 103.104h756.8c58.496 0 103.232-44.608 103.232-103.104V322.816c0-58.496-44.736-103.168-103.232-103.168z m51.648 584.704a52.992 52.992 0 0 1-51.648 51.712h-756.8a52.928 52.928 0 0 1-51.584-51.712V322.816c0-27.52 24.064-51.584 51.584-51.584h141.056l10.368-34.432 24.064-68.8h405.952l24 68.8 10.368 34.432h140.992c27.52 0 51.648 24.064 51.648 51.584v481.536z" fill="#bfbfbf" p-id="1637"></path></svg>